<svg width="88" height="88" viewBox="0 0 88 88" fill="none" xmlns="http://www.w3.org/2000/svg">
<path d="M55 9.16666H7.33331V56.8333H55V9.16666Z" fill="#B5C5C3"/>
<path d="M38.0417 78.8333C38.0417 67.0633 47.5934 57.5117 59.3634 57.5117C71.1334 57.5117 80.6667 67.0633 80.6667 78.8333H38.0417Z" fill="#33404F"/>
<path d="M59.345 55.385C64.6405 55.385 68.9334 51.0922 68.9334 45.7967C68.9334 40.5012 64.6405 36.2083 59.345 36.2083C54.0496 36.2083 49.7567 40.5012 49.7567 45.7967C49.7567 51.0922 54.0496 55.385 59.345 55.385Z" fill="#33404F"/>
<path d="M35.255 44.8433C40.5505 44.8433 44.8434 40.5505 44.8434 35.255C44.8434 29.9595 40.5505 25.6667 35.255 25.6667C29.9595 25.6667 25.6667 29.9595 25.6667 35.255C25.6667 40.5505 29.9595 44.8433 35.255 44.8433Z" fill="#33404F"/>
<path d="M53.515 56.65C49.665 51.095 43.2484 47.4467 35.9884 47.4467C24.2184 47.4284 14.6667 56.98 14.6667 68.75H37.785C41.0484 62.755 46.7317 58.3 53.515 56.65Z" fill="#33404F"/>
</svg>
