<svg width="595" height="1330" viewBox="0 0 595 1330" fill="none" xmlns="http://www.w3.org/2000/svg">
<g opacity="0.15">
<path d="M606.885 1.0498C745.756 1.0498 884.627 1.0498 1023.51 1.0498C1026.62 4.78512 1029.01 9.78215 1032.96 12.0399C1048.02 20.5731 1062.99 29.7537 1079.08 35.8464C1104.56 45.5084 1130.71 53.9253 1158.52 54.1079C1167.91 54.1743 1174.06 48.2642 1174.44 38.8678C1174.62 34.5017 1174.04 30.0691 1173.64 25.6863C1172.89 17.4686 1172.05 9.25091 1171.23 1.0498C1196.68 1.0498 1222.13 1.0498 1247.58 1.0498C1249.24 4.08786 1250.36 7.65717 1252.65 10.081C1265.38 23.5447 1280.65 33.6052 1297.92 39.9635C1316.01 46.6207 1334.51 51.8501 1354.41 49.6422C1378.62 46.9693 1400.05 36.9919 1421.25 26.1678C1435.18 19.0623 1449.66 18.9295 1463.93 23.2791C1483.57 29.2556 1499.48 41.8561 1515.07 54.8052C1537.44 73.3988 1556.07 95.13 1568.97 121.211C1593.72 171.297 1596.7 224.654 1590.39 278.974C1587.88 300.589 1583.02 321.922 1580.04 343.504C1577.3 363.26 1583.88 381.853 1606.39 390.519C1632.16 400.447 1659.3 400.613 1686.19 402.671C1697.47 403.535 1708.77 403.867 1719.99 405.095C1741.14 407.403 1761.68 404.813 1777.72 390.519C1793.26 376.674 1807.85 361.234 1820.32 344.583C1855.18 298.016 1895.59 256.529 1935.81 214.793C1946.52 203.687 1957.38 192.514 1966.62 180.212C1998.88 137.298 2035.85 98.6329 2072.58 59.6694C2088.7 42.5534 2102.51 23.5115 2110.73 1.0498C2115.71 1.0498 2120.69 1.0498 2125.67 1.0498C2125.67 24.8396 2125.67 48.6295 2125.67 72.4193C2123.57 73.681 2121.28 74.6771 2119.44 76.2376C2110.61 83.7249 2102.11 91.6271 2093.11 98.9152C2062.7 123.552 2037.36 153.019 2012.13 182.669C1997.3 200.101 1981.95 217.25 1965.38 232.988C1941.12 256.031 1916.54 278.642 1896.7 305.752C1878.62 330.439 1865.47 357.416 1863.66 388.494C1861.85 419.455 1872.53 447.246 1888.35 473.111C1917.68 521.056 1952.61 564.934 1989.45 607.201C2021.58 644.056 2049.75 683.318 2071.35 727.229C2079.28 743.349 2087.68 759.253 2095.4 775.489C2101.56 788.422 2107.14 801.62 2112.75 814.802C2117.17 825.194 2114.74 835.072 2108.58 843.788C2102.56 852.337 2096.15 860.738 2088.93 868.258C2068.89 889.143 2051.87 912.103 2038.94 938.001C2021.69 972.515 2009.34 1008.76 2000.34 1046.28C1993.24 1075.86 1991.26 1105.58 2000.61 1134.59C2016.01 1182.44 2032.95 1229.8 2049.33 1277.33C2055.26 1294.55 2061.49 1311.65 2067.58 1328.8C2054.84 1328.8 2042.13 1328.8 2029.39 1328.8C2019.95 1304.98 2011.9 1280.45 2000.71 1257.48C1983.89 1222.9 1959.27 1193.75 1931.73 1166.95C1923.89 1159.33 1917.09 1150.35 1911.13 1141.14C1900.25 1124.35 1894.03 1105.89 1895.29 1085.5C1896.72 1062.33 1908.89 1044.42 1924.17 1028.33C1946.97 1004.34 1967.57 978.541 1981.08 948.327C1996.86 913.065 2011.28 877.107 2024.38 840.766C2036.92 805.97 2034.31 770.741 2021.11 736.277C2006.3 697.662 1980.62 667.547 1947.78 643.242C1916.09 619.785 1888.53 592.044 1861.92 563.124C1846.85 546.738 1831.67 530.054 1814.39 516.159C1780.81 489.165 1756.93 490.144 1723.96 507.576C1693.61 523.629 1674.16 549.943 1661.06 581.02C1649.29 608.977 1642.8 638.212 1640.36 668.543C1637.68 701.68 1647.33 727.81 1679.49 738.385C1698.64 744.677 1717.82 750.986 1736.71 758.075C1762.28 767.67 1782.3 783.524 1789.02 811.448C1797.42 846.311 1796.24 881.074 1784.56 915.124C1779.51 929.833 1770.01 941.072 1754.86 946.584C1744.78 950.253 1734.65 950.402 1723.96 948.991C1694.99 945.173 1670.17 932.871 1648.52 913.812C1634.03 901.046 1625.13 884.262 1619.09 866.382C1613.26 849.15 1608.45 831.436 1604.91 813.59C1598.54 781.499 1582.33 758.705 1550.59 747.234C1530.11 739.83 1510.05 730.948 1490.48 721.385C1462.14 707.54 1439.56 687.137 1426.71 657.669C1410.15 619.619 1407.12 579.742 1412.85 539.085C1415.51 520.243 1419.66 501.599 1423.01 482.856C1426.78 461.673 1415.09 445.935 1393.94 442.482C1370.53 438.647 1349.4 444.955 1330.01 457.058C1311.03 468.911 1293.29 482.69 1274.43 494.743C1241.72 515.627 1206.86 530.021 1166.83 527.248C1155.1 526.435 1145.95 519.462 1144.99 508.572C1144.42 502.296 1144.29 495.706 1145.58 489.596C1149.24 472.314 1153.47 455.148 1157.94 438.066C1167.17 402.771 1177.08 367.725 1191.9 334.174C1202.83 309.421 1212.44 284.17 1213.14 256.33C1213.87 227.145 1206.64 200.599 1190.04 176.709C1166.14 142.311 1132.85 120.962 1093.04 109.972C1066 102.501 1038.89 102.053 1013.65 117.326C996.72 127.569 986.261 143.772 976.582 160.141C956.345 194.373 937.519 229.436 917.033 263.518C898.971 293.6 874.6 318.469 847.938 341.097C827.336 358.595 805.87 375.196 786.38 393.856C762.557 416.666 742.286 442.614 728.009 472.696C716.986 495.905 706.344 519.296 695.487 542.588C686.854 561.115 671.614 571.823 652.157 575.077C634.012 578.115 615.452 579.128 597.041 580.207C574.795 581.502 566.527 592.077 572.471 613.443C576.621 628.401 584.59 641.383 595.331 652.39C626.292 684.148 680.181 686.655 717.501 657.902C737.422 642.545 759.486 632.817 784.188 628.268C814.386 622.707 844.252 615.867 872.724 603.831C895.866 594.036 919.241 584.723 942.5 575.21C979.371 560.136 1017.55 555.155 1057.02 560.451C1075.49 562.925 1088.33 577.899 1090.09 596.526C1091.95 616.282 1093.21 636.353 1097.96 655.494C1107.4 693.545 1119.42 730.948 1129.7 768.816C1138.06 799.661 1147.38 830.49 1143.08 863.211C1141.09 878.402 1136.25 892.065 1124.95 903.105C1109.59 918.079 1090.62 926.048 1070.6 931.991C1050.72 937.901 1030.54 942.732 1010.8 949.024C989.15 955.93 972.947 970.291 960.96 989.349C945.073 1014.6 930.397 1040.65 913.563 1065.22C880.178 1113.94 834.956 1148.19 780.652 1171.28C752.745 1183.15 725.071 1195.9 698.459 1210.41C663.496 1229.46 648.704 1262.28 654.664 1300.94C656.092 1310.2 657.154 1319.52 658.4 1328.81C639.042 1328.81 619.668 1328.81 600.311 1328.81C599.896 1325 599.464 1321.16 599.049 1317.33C596.692 1294.88 592.641 1272.45 592.492 1249.99C592.342 1227.76 598.551 1205.77 617.543 1191.85C632.966 1180.55 650.066 1170.94 667.58 1163.15C709.98 1144.32 753.492 1127.99 795.693 1108.75C830.855 1092.71 859.393 1067.49 878.983 1033.97C900.083 997.882 905.644 960.296 878.269 924.57C856.139 895.717 836.317 865.702 820.894 832.748C818.138 826.871 813.507 821.774 809.29 816.711C793.419 797.636 771.654 789.468 748.379 784.039C722.049 777.913 695.537 775.622 668.676 779.474C651.194 781.981 637.581 789.767 629.828 806.567C621.329 824.995 623.57 845.016 620.233 864.191C615.518 891.318 612.198 918.859 605.175 945.388C593.206 990.561 569.947 1031.15 549.046 1072.59C537.027 1096.43 520.774 1116.91 497.117 1130.28C481.478 1139.09 465.192 1146.75 449.437 1155.36C425 1168.71 403.302 1185.46 386.136 1207.72C358.595 1243.45 348.883 1284.7 348.053 1328.8C284.984 1328.8 221.898 1328.8 158.83 1328.8C148.62 1304.43 141.398 1279.14 139.174 1252.86C135.704 1211.76 126.075 1172.38 110.669 1134.15C98.8155 1104.76 89.5353 1074.35 92.7394 1042.21C95.2296 1017.31 98.9483 992.337 104.526 967.95C114.338 925.035 117.509 882.585 107.05 839.206C103.779 825.609 104.078 810.601 105.589 796.54C108.145 772.684 119.849 751.932 132.898 732.243C147.275 710.528 162.864 689.693 185.956 676.246C206.658 664.21 228.39 660.823 247.763 677.226C258.172 686.024 266.49 698.177 273.296 710.213C291.043 741.606 314.734 765.562 351.323 771.372C370.664 774.444 390.951 773.962 410.574 772.368C436.389 770.26 460.843 761.926 483.221 748.462C508.223 733.421 512.888 716.372 503.824 689.145C497.714 670.768 488.335 653.137 473.36 640.37C454.086 623.952 433.849 608.496 413.097 593.969C392.412 579.493 374.465 562.659 361.068 541.36C345.031 515.876 329.658 489.962 314.136 464.163C289.151 422.61 258.372 386.535 216.287 361.367C192.813 347.339 168.475 334.722 145.399 320.063C127.984 309.006 110.47 297.335 95.6944 283.141C72.0872 260.464 61.9271 231.046 62.7074 198.308C63.1224 180.959 64.0023 163.561 65.9281 146.329C72.2532 89.5852 93.088 40.5944 142.129 7.09272C144.237 5.6484 145.548 3.05858 147.242 1C181.54 1 215.855 1 250.154 1C247.78 3.52342 245.788 6.66108 242.966 8.45404C221.517 22.0672 199.47 34.8005 178.452 49.0611C158.879 62.3256 142.842 79.3089 130.757 100.011C118.256 121.41 111.466 144.32 108.494 168.791C104.194 204.417 113.059 235.561 138.161 261.592C158.132 282.294 182.586 297.003 206.758 311.994C237.089 330.804 267.785 349.281 291.226 376.823C304.972 392.96 317.108 410.491 329.774 427.524C344.433 447.23 357.731 468.098 373.669 486.691C406.456 524.974 449.205 544.979 499.142 550.208C516.789 552.051 529.739 540.961 528.327 523.779C526.086 496.868 522.799 470.056 520.475 443.146C518.018 414.608 515.81 386.02 514.233 357.416C513.386 341.977 514.615 326.438 513.967 310.982C512.755 282.162 523.364 258.222 542.422 237.321C559.306 218.777 572.022 197.959 574.861 172.459C576.638 156.589 577.086 140.552 578.929 124.697C581.452 103.099 583.311 81.2679 588.092 60.1343C592.475 40.0631 600.427 20.7225 606.885 1.0498ZM910.774 150.446C912.634 121.526 899.402 99.7784 876.891 84.1233C860.439 72.6683 842.476 63.0727 824.331 54.4234C789.551 37.8386 753.21 25.2713 715.21 18.3651C698.724 15.3768 681.94 17.1366 668.759 28.3923C641.283 51.8501 631.854 82.928 636.386 117.874C639.258 139.987 644.604 161.818 649.285 183.682C655.278 211.689 649.966 237.039 631.721 259.135C621.727 271.255 611.168 282.992 600.012 294.032C558.625 335.004 552.765 390.403 573.931 441.087C579.111 453.505 587.229 464.213 598.253 472.065C628.384 493.514 657.071 480.217 679.085 456.709C698.11 436.389 714.795 413.778 734.583 394.288C756.547 372.656 780.47 352.917 804.293 333.261C832.963 309.571 860.671 285.167 879.215 252.262C897.061 220.587 909.313 187.135 910.774 150.446ZM125.56 1049.33C123.684 1080.91 136.119 1109.53 149.782 1137.78C161.087 1161.16 173.057 1184.22 183.815 1207.84C194.888 1232.16 202.541 1258.18 220.205 1279.11C230.681 1291.53 252.677 1304.18 271.171 1287.88C279.323 1280.7 286.046 1271.74 292.67 1263.04C310.035 1240.21 325.624 1215.88 344.45 1194.34C371.079 1163.88 403.219 1139.21 436.654 1116.55C472.065 1092.54 503.093 1064.37 524.725 1026.98C535.781 1007.86 547.27 988.884 556.649 968.929C570.412 939.628 578.298 908.981 573.865 875.828C569.3 841.596 547.485 816.379 514.548 809.888C494.112 805.87 473.941 809.589 453.704 811.913C426.876 814.984 400.015 820.529 373.22 820.28C340.283 819.965 307.396 814.735 274.475 811.714C260.231 810.402 245.821 807.431 231.76 808.51C205.629 810.535 192.497 830.291 183.997 851.723C167.512 893.31 152.554 935.527 137.895 977.811C129.993 1000.54 124.514 1024 125.56 1049.33ZM1352.26 380.376C1376.44 379.064 1404.3 378.251 1432.04 375.843C1452.96 374.034 1472.52 366.879 1489.53 354.228C1506.63 341.512 1519.76 325.242 1530.12 306.699C1555.06 262.057 1564.55 215.341 1546.59 165.968C1534.22 131.952 1511.21 108.245 1473.76 104.078C1458.21 102.352 1441.7 103.763 1426.3 106.983C1388.07 114.952 1350.11 118.97 1311.42 110.486C1291.21 106.054 1270.74 102.833 1250.32 99.3966C1234.19 96.674 1224.71 105.855 1228.26 120.846C1230.6 130.773 1233.31 140.718 1236.91 150.247C1251.3 188.347 1258.69 227.692 1259.22 268.399C1259.54 291.857 1260.07 315.315 1260.93 338.756C1261.79 361.832 1275.77 376.175 1298.92 377.802C1315.45 378.948 1332 379.413 1352.26 380.376ZM1021.24 888.578C1032.11 887.018 1043.24 886.42 1053.81 883.697C1076.76 877.787 1093.49 863.294 1097.42 839.82C1100.23 823.086 1099.85 804.907 1096.53 788.239C1086.83 739.481 1063.36 696.566 1035.19 656.125C1025.16 641.748 1012.34 630.277 995.176 625.496C980.318 621.362 965.161 622.491 950.186 626.392C920.802 634.045 895.518 649.119 874.567 670.602C847.307 698.558 845.365 746.968 872.093 779.324C893.841 805.654 918.494 829.577 941.819 854.612C963.251 877.621 989.631 888.545 1021.24 888.578ZM1614.41 553.528C1614.41 551.32 1614.41 549.112 1614.41 546.888C1614.34 507.924 1587.13 481.229 1548.17 480.532C1516.46 479.968 1494.3 496.104 1476.33 519.662C1462.85 537.342 1455.53 557.878 1452.66 579.941C1447.3 621.196 1463.82 667.198 1508.26 686.506C1525.56 694.01 1543.62 696.101 1561.63 690.822C1578.37 685.908 1587.15 671.946 1593.34 656.806C1606.87 623.769 1612.53 589.006 1614.41 553.528ZM1732.16 850.976C1733.99 836.865 1725.95 827.17 1715.73 818.952C1706.25 811.332 1689.66 810.386 1680.52 816.196C1672.53 821.26 1667.75 834.225 1669.77 844.883C1671.77 855.359 1677.16 863.66 1684.95 870.831C1694.41 879.547 1706.93 883.083 1716.81 878.186C1727.65 872.79 1733.39 863.909 1732.16 850.976Z" stroke="white" stroke-width="2" stroke-miterlimit="10"/>
<path d="M658.333 1328.8C657.105 1319.5 656.026 1310.19 654.598 1300.92C648.655 1262.26 663.43 1229.44 698.392 1210.4C725.004 1195.9 752.679 1183.15 780.586 1171.27C834.873 1148.16 880.112 1113.93 913.497 1065.2C930.331 1040.61 945.006 1014.57 960.894 989.332C972.88 970.274 989.1 955.897 1010.73 949.007C1030.47 942.716 1050.66 937.868 1070.53 931.974C1090.53 926.031 1109.53 918.062 1124.88 903.088C1136.21 892.048 1141.02 878.385 1143.01 863.195C1147.31 830.473 1138 799.644 1129.63 768.799C1119.37 730.931 1107.34 693.528 1097.89 655.478C1093.14 636.336 1091.86 616.265 1090.02 596.509C1088.28 577.883 1075.44 562.908 1056.95 560.435C1017.49 555.155 979.288 560.119 942.433 575.193C919.158 584.706 895.8 594.019 872.658 603.814C844.203 615.867 814.32 622.707 784.122 628.251C759.419 632.8 737.356 642.529 717.434 657.885C680.114 686.639 626.226 684.132 595.264 652.373C584.54 641.366 576.571 628.384 572.404 613.426C566.461 592.06 574.728 581.485 596.974 580.19C615.402 579.128 633.946 578.115 652.091 575.06C671.548 571.79 686.771 561.099 695.421 542.571C706.278 519.28 716.92 495.888 727.943 472.679C742.22 442.614 762.49 416.65 786.314 393.839C805.804 375.179 827.269 358.578 847.872 341.08C874.533 318.452 898.904 293.583 916.967 263.502C937.436 229.419 956.279 194.357 976.516 160.125C986.195 143.739 996.653 127.553 1013.59 117.31C1038.82 102.036 1065.93 102.484 1092.97 109.955C1132.79 120.962 1166.07 142.295 1189.98 176.693C1206.58 200.582 1213.8 227.128 1213.07 256.313C1212.37 284.154 1202.78 309.405 1191.84 334.157C1177.01 367.709 1167.1 402.754 1157.87 438.049C1153.4 455.132 1149.17 472.298 1145.52 489.58C1144.22 495.689 1144.36 502.28 1144.92 508.555C1145.88 519.446 1155.05 526.418 1166.77 527.232C1206.79 530.004 1241.64 515.611 1274.36 494.726C1293.22 482.69 1310.97 468.894 1329.94 457.041C1349.33 444.939 1370.47 438.63 1393.88 442.465C1415.03 445.935 1426.71 461.656 1422.94 482.84C1419.61 501.599 1415.44 520.226 1412.78 539.069C1407.06 579.725 1410.08 619.602 1426.65 657.653C1439.48 687.12 1462.06 707.523 1490.41 721.369C1510 730.931 1530.04 739.83 1550.53 747.217C1582.27 758.689 1598.47 781.466 1604.85 813.573C1608.38 831.42 1613.2 849.133 1619.02 866.366C1625.07 884.245 1633.97 901.029 1648.46 913.796C1670.09 932.854 1694.91 945.156 1723.9 948.974C1734.59 950.385 1744.71 950.236 1754.79 946.567C1769.95 941.039 1779.43 929.816 1784.49 915.107C1796.18 881.074 1797.37 846.311 1788.96 811.431C1782.23 783.524 1762.21 767.654 1736.65 758.058C1717.77 750.969 1698.59 744.677 1679.42 738.369C1647.28 727.794 1637.62 701.663 1640.29 668.526C1642.75 638.212 1649.22 608.961 1660.99 581.004C1674.07 549.926 1693.55 523.613 1723.9 507.559C1756.87 490.111 1780.76 489.148 1814.32 516.142C1831.61 530.021 1846.76 546.722 1861.85 563.107C1888.47 592.027 1916.02 619.768 1947.72 643.226C1980.57 667.53 2006.25 697.645 2021.04 736.26C2034.26 770.725 2036.87 805.953 2024.31 840.75C2011.22 877.09 1996.79 913.049 1981.02 948.31C1967.52 978.508 1946.92 1004.32 1924.11 1028.31C1908.82 1044.4 1896.65 1062.31 1895.22 1085.49C1893.96 1105.87 1900.19 1124.33 1911.06 1141.12C1917.04 1150.33 1923.83 1159.3 1931.66 1166.93C1959.2 1193.73 1983.81 1222.88 2000.64 1257.46C2011.83 1280.45 2019.88 1304.96 2029.33 1328.78C2017.71 1328.78 2006.09 1328.78 1994.47 1328.78C1984.52 1300.53 1970.86 1274.11 1948.31 1254.14C1928.97 1237.01 1907.62 1222.12 1886.74 1206.79C1866.85 1192.2 1849.2 1175.83 1839.21 1152.69C1832.09 1136.2 1824.1 1120 1818.46 1103.02C1804.53 1061.1 1777.62 1032.06 1737.31 1014.08C1707.28 1000.69 1678.24 985.066 1648.56 970.888C1612.25 953.54 1589.36 926.014 1580.71 886.32C1577.02 869.37 1571.71 852.669 1565.87 836.317C1559.39 818.255 1550.69 800.724 1534.16 789.866C1512.99 775.971 1491.31 762.59 1468.83 750.986C1428.36 730.085 1397.76 700.849 1382.2 657.237C1374.5 635.639 1366.85 614.007 1358.6 592.625C1349.18 568.221 1329.93 557.729 1304.38 563.29C1264.6 571.923 1227.48 587.661 1192.55 608.247C1162.45 625.994 1149.77 653.95 1151.66 687.917C1152.69 706.261 1155.91 724.755 1160.59 742.552C1168.69 773.265 1178.97 803.396 1187.82 833.91C1193.98 855.193 1198.23 876.824 1193.93 899.17C1187.77 931.161 1167.23 950.701 1138 961.492C1113.15 970.672 1087.56 977.877 1062.46 986.427C1033.19 996.388 1008.46 1013.06 990.66 1038.66C969.062 1069.73 948.128 1101.28 926.845 1132.55C909.413 1158.17 887.599 1178.8 859.144 1191.87C831.021 1204.79 802.483 1216.89 774.942 1230.97C750.338 1243.53 729.055 1260.7 722.365 1289.44C719.393 1302.2 719.393 1315.65 718.032 1328.78C698.177 1328.8 678.255 1328.8 658.333 1328.8ZM834.74 563.738C856.455 564.17 876.243 557.994 895.584 550.358C934.133 535.117 972.017 518.084 1011.06 504.305C1060.15 486.99 1094.4 455.663 1113.05 407.121C1127.8 368.688 1143.06 330.422 1157.37 291.824C1165.12 270.939 1169.56 249.623 1163.13 226.962C1150.7 183.068 1099.18 155.028 1055.97 169.089C1034.64 176.029 1019.51 191.119 1006.15 207.638C983.406 235.744 962.372 265.228 940.026 293.65C920.187 318.901 896.962 340.931 872.209 361.35C846.676 382.418 820.081 402.406 799.296 428.586C780.154 452.708 766.076 478.955 767.936 511.062C768.799 526.053 775.108 538.687 786.563 548.515C800.591 560.534 817.325 564.12 834.74 563.738ZM1846.83 866.449C1849.58 880.842 1851.81 899.552 1856.92 917.415C1862.93 938.382 1882.12 946.965 1902.83 940.275C1915.46 936.191 1924.94 927.774 1932.74 917.564C1951.19 893.409 1959.37 865.137 1964.67 835.753C1968.93 812.096 1970.08 788.704 1961.99 765.412C1953.03 739.564 1935.45 723.593 1908.75 718.779C1888.73 715.16 1867.23 720.207 1861.24 747.118C1859.15 756.531 1857.2 766.027 1856.13 775.589C1852.94 804.359 1850.2 833.179 1846.83 866.449ZM1752.91 593.505C1727.86 593.289 1713.65 603.598 1704.32 620.781C1688.4 650.149 1699.54 683.567 1730.49 691.619C1740.05 694.109 1749.84 696.799 1759.61 697.097C1772.74 697.513 1786.13 696.566 1798.04 689.594C1809.86 682.671 1814.71 671.415 1812.35 658.101C1809.69 643.06 1803.5 629.712 1794.22 617.743C1782.61 602.752 1767.36 594.501 1752.91 593.505Z" stroke="white" stroke-width="2" stroke-miterlimit="10"/>
<path d="M147.092 1.05075C145.399 3.10933 144.088 5.69915 141.979 7.14347C92.9387 40.6451 72.0873 89.6525 65.7787 146.38C63.853 163.612 62.9731 181.01 62.5581 198.359C61.7778 231.08 71.9379 260.514 95.5451 283.192C110.32 297.386 127.835 309.073 145.25 320.113C168.326 334.756 192.663 347.373 216.138 361.418C258.239 386.586 289.018 422.66 313.987 464.214C329.509 490.029 344.882 515.927 360.919 541.41C374.316 562.71 392.262 579.544 412.948 594.02C433.699 608.546 453.937 624.002 473.211 640.421C488.185 653.171 497.565 670.802 503.674 689.196C512.722 716.423 508.074 733.472 483.072 748.513C460.693 761.977 436.239 770.311 410.424 772.419C390.785 774.029 370.514 774.494 351.174 771.423C314.601 765.613 290.911 741.657 273.147 710.263C266.341 698.227 258.04 686.075 247.614 677.276C228.224 660.874 206.492 664.261 185.807 676.297C162.714 689.727 147.126 710.579 132.749 732.293C119.7 751.983 107.996 772.735 105.44 796.591C103.929 810.652 103.63 825.66 106.9 839.256C117.359 882.619 114.188 925.086 104.377 968C98.799 992.388 95.0802 1017.34 92.59 1042.26C89.386 1074.4 98.6827 1104.81 110.52 1134.2C125.942 1172.43 135.555 1211.81 139.024 1252.91C141.249 1279.19 148.47 1304.48 158.68 1328.85C129.91 1328.85 101.14 1328.85 72.3695 1328.85C75.391 1311.2 78.18 1293.52 81.5003 1275.94C87.6594 1243.32 93.1545 1210.53 85.2854 1177.58C80.1058 1155.88 73.3988 1134.48 66.476 1113.25C57.0796 1084.38 52.7798 1054.78 52.5806 1024.59C52.4644 1008.08 54.5064 991.508 53.8257 975.039C53.2115 959.999 51.7007 944.642 39.4157 933.171C28.4754 922.944 14.8124 921.716 1 920.57C1 861.934 1 803.281 1 744.645C15.5926 744.296 27.6619 736.809 38.7018 728.89C67.7709 708.006 84.9036 677.957 97.7697 645.468C105.788 625.198 111.532 604.014 119.302 583.628C131.637 551.205 154.829 538.621 189.26 543.369C208.086 545.959 227.095 547.271 246.054 548.732C260.464 549.844 281.398 534.255 278.111 516.077C276.119 505.07 274.475 493.648 270.126 483.488C253.773 445.238 222.147 421.498 187.899 400.913C142.892 373.885 97.2716 347.888 56.8306 313.938C35.863 296.34 19.8592 275.306 14.3309 248.462C9.84856 226.697 8.85247 204.219 5.88082 182.122C4.96774 175.366 2.67674 168.775 1.0166 162.118C1.0166 108.595 1.0166 55.0884 1.0166 1.13376C49.7252 1.05075 98.4171 1.05075 147.092 1.05075Z" stroke="white" stroke-width="2" stroke-miterlimit="10"/>
<path d="M347.936 1328.8C348.767 1284.7 358.478 1243.45 386.02 1207.72C403.186 1185.46 424.867 1168.71 449.321 1155.36C465.076 1146.75 481.379 1139.11 497.001 1130.28C520.674 1116.93 536.91 1096.44 548.93 1072.59C569.814 1031.15 593.09 990.561 605.059 945.388C612.082 918.859 615.402 891.317 620.117 864.191C623.454 845.016 621.212 824.995 629.712 806.567C637.482 789.75 651.095 781.981 668.56 779.474C695.437 775.606 721.933 777.913 748.263 784.039C771.555 789.451 793.303 797.636 809.174 816.711C813.39 821.791 818.039 826.871 820.778 832.748C836.201 865.701 856.023 895.717 878.153 924.57C905.528 960.296 899.967 997.882 878.866 1033.97C859.277 1067.49 830.739 1092.71 795.577 1108.75C753.376 1127.99 709.864 1144.31 667.464 1163.15C649.949 1170.94 632.867 1180.55 617.427 1191.85C598.435 1205.76 592.226 1227.76 592.376 1249.99C592.525 1272.45 596.576 1294.88 598.933 1317.33C599.332 1321.16 599.763 1324.98 600.195 1328.81C579.178 1328.81 558.144 1328.81 537.126 1328.81C536.014 1321.19 535.101 1313.52 533.74 1305.95C529.307 1281.28 525.97 1256.37 513.751 1233.79C503.126 1214.17 478.457 1205.23 458.253 1214.83C428.802 1228.82 413.96 1252.9 412.815 1285.09C412.3 1299.63 413.744 1314.24 414.292 1328.81C392.212 1328.8 370.066 1328.8 347.936 1328.8ZM624.466 1052.98C625.247 1053.16 626.027 1053.35 626.79 1053.55C623.47 1080.34 642.96 1091.23 664.974 1087.73C678.504 1085.57 692.349 1082.78 704.9 1077.5C733.621 1065.43 762.291 1053.16 785.185 1030.5C804.708 1011.2 807.513 989.083 798.3 965.177C790.265 944.342 780.37 924.155 770.293 904.2C761.577 886.918 749.492 872.242 731.147 864.008C715.16 856.836 697.562 859.177 686.29 872.259C678.52 881.274 670.983 891.633 667.198 902.723C655.976 935.643 646.347 969.128 636.718 1002.56C631.954 1019.18 628.517 1036.16 624.466 1052.98Z" stroke="white" stroke-width="2" stroke-miterlimit="10"/>
<path d="M606.885 1.0498C600.427 20.7225 592.492 40.0631 587.943 60.1675C583.162 81.3011 581.286 103.132 578.779 124.73C576.936 140.601 576.488 156.622 574.712 172.493C571.873 197.992 559.156 218.811 542.273 237.354C523.231 258.272 512.606 282.195 513.818 311.015C514.465 326.471 513.237 342.01 514.083 357.449C515.661 386.053 517.869 414.624 520.326 443.179C522.633 470.09 525.937 496.901 528.178 523.812C529.606 540.994 516.657 552.084 498.993 550.241C449.056 545.012 406.324 524.991 373.519 486.724C357.582 468.114 344.284 447.263 329.625 427.557C316.958 410.524 304.823 393.009 291.077 376.856C267.652 349.314 236.956 330.854 206.609 312.028C182.437 297.037 157.983 282.328 138.012 261.626C112.91 235.595 104.028 204.45 108.345 168.824C111.3 144.353 118.09 121.427 130.607 100.044C142.71 79.3587 158.73 62.3754 178.303 49.0943C199.321 34.8503 221.367 22.117 242.816 8.48724C245.655 6.69429 247.631 3.55662 250.005 1.0332C270.474 1.0332 290.944 1.0332 311.413 1.0332C309.571 3.70603 308.027 6.66108 305.835 9.00188C288.022 28.0105 265.743 40.9098 243.63 54.0083C218.379 68.9496 193.361 84.1565 175.298 108.212C140.983 153.916 143.457 209.763 185.292 248.212C208.883 269.893 236.607 287.258 263.319 305.321C290.479 323.698 316.875 342.309 334.705 370.88C346.691 390.071 359.275 408.963 372.839 427.059C383.962 441.9 397.492 454.767 414.84 462.569C437.468 472.746 458.502 464.927 466.172 442.598C469.608 432.554 471.683 421.663 472.198 411.055C473.476 383.679 468.745 357.1 457.921 331.816C452.808 319.88 447.362 308.093 441.685 296.422C427.972 268.233 430.545 241.272 450.068 217.3C463.798 200.433 479.934 185.508 495.274 169.986C507.924 157.203 518.134 142.627 523.812 125.776C531.482 103.032 537.707 79.7903 543.9 56.5815C548.814 38.1872 552.748 19.5438 557.114 1C573.683 1.0498 590.284 1.0498 606.885 1.0498Z" stroke="white" stroke-width="2" stroke-miterlimit="10"/>
<path d="M557.081 1.0498C552.715 19.577 548.78 38.237 543.866 56.6314C537.674 79.8401 531.449 103.082 523.779 125.826C518.101 142.677 507.891 157.253 495.241 170.036C479.885 185.541 463.765 200.483 450.035 217.35C430.512 241.306 427.955 268.283 441.651 296.472C447.329 308.143 452.774 319.946 457.888 331.866C468.728 357.15 473.46 383.729 472.165 411.105C471.667 421.713 469.592 432.604 466.139 442.648C458.485 464.976 437.435 472.796 414.807 462.619C397.458 454.816 383.928 441.95 372.805 427.109C359.242 409.013 346.658 390.121 334.672 370.929C316.842 342.358 290.446 323.748 263.286 305.37C236.574 287.308 208.866 269.943 185.259 248.262C143.424 209.813 140.95 153.982 175.265 108.262C193.327 84.2063 218.362 68.9994 243.597 54.0581C265.726 40.9596 287.989 28.0603 305.802 9.05169C307.993 6.71089 309.537 3.75584 311.38 1.08301C330.19 1.08301 348.999 1.08301 367.808 1.08301C366.547 3.17479 365.6 5.53219 363.99 7.29194C337.411 36.1452 306.914 59.9848 273.23 80.1556C249.374 94.4328 225.053 108.693 210.51 134.094C196.382 158.763 195.336 183.997 210.593 207.92C235.777 247.382 273.164 269.412 318.701 277.729C331.7 280.103 344.932 277.397 353.432 266.49C365.418 251.1 376.043 234.599 386.9 218.362C400.629 197.843 416.533 179.349 435.094 162.98C454.435 145.93 472.314 127.42 483.919 103.979C499.956 71.5892 504.206 36.61 505.567 1.08301C522.783 1.0498 539.932 1.0498 557.081 1.0498Z" stroke="white" stroke-width="2" stroke-miterlimit="10"/>
<path d="M1.0332 162.034C2.69334 168.691 4.98433 175.265 5.89741 182.038C8.86907 204.152 9.86515 226.613 14.3475 248.378C19.8758 275.222 35.8962 296.273 56.8472 313.854C97.2882 347.804 142.909 373.785 187.915 400.829C222.164 421.414 253.79 445.154 270.142 483.404C274.475 493.564 276.135 504.986 278.127 515.993C281.415 534.171 260.48 549.76 246.07 548.648C227.111 547.187 208.103 545.875 189.277 543.285C154.862 538.537 131.653 551.121 119.318 583.544C111.565 603.93 105.821 625.114 97.7863 645.384C84.9368 677.873 67.8041 707.922 38.7184 728.806C27.6785 736.725 15.6092 744.212 1.01659 744.561C1.01659 711.923 1.01659 679.284 1.01659 646.646C7.55755 639.109 15.7255 632.435 20.2742 623.835C28.6414 608.064 34.9001 591.164 42.0221 574.728C56.4819 541.343 71.224 508.074 85.302 474.522C93.6193 454.7 95.0138 434.712 84.3723 414.774C74.0794 395.466 58.0923 381.505 41.3746 368.456C28.6248 358.495 14.5135 350.277 1.01659 341.279C1.0332 281.531 1.0332 221.782 1.0332 162.034Z" stroke="white" stroke-width="2" stroke-miterlimit="10"/>
<path d="M505.633 1.0498C504.272 36.5768 500.022 71.556 483.985 103.945C472.381 127.387 454.501 145.914 435.16 162.947C416.583 179.316 400.696 197.793 386.966 218.329C376.092 234.582 365.484 251.067 353.498 266.457C345.015 277.347 331.783 280.07 318.768 277.696C273.23 269.379 235.844 247.348 210.659 207.887C195.386 183.964 196.448 158.73 210.576 134.06C225.119 108.66 249.44 94.3996 273.296 80.1224C306.981 59.9516 337.478 36.112 364.056 7.25874C365.667 5.49899 366.613 3.12498 367.875 1.0498C413.778 1.0498 459.697 1.0498 505.633 1.0498ZM303.777 203.67C322.038 202.79 334.821 191.568 346.891 179.847C357.549 169.504 366.978 157.917 377.105 147.026C387.813 135.521 398.969 124.432 409.494 112.761C419.04 102.186 426.312 90.1994 428.835 75.8392C431.442 60.9809 420.966 50.8873 406.905 55.4693C399.384 57.9097 391.864 61.1802 385.24 65.4799C357.93 83.1936 330.854 101.273 303.943 119.584C292.355 127.47 280.651 135.422 273.213 147.939C266.274 159.627 263.917 171.762 271.088 183.981C278.31 196.233 289.483 202.657 303.777 203.67Z" stroke="white" stroke-width="2" stroke-miterlimit="10"/>
<path d="M1.0332 920.503C14.829 921.648 28.4919 922.877 39.4489 933.103C51.7505 944.575 53.2447 959.931 53.8589 974.972C54.5396 991.441 52.4976 1008.01 52.6138 1024.53C52.8296 1054.73 57.1128 1084.31 66.5092 1113.18C73.432 1134.41 80.1224 1155.79 85.3186 1177.51C93.1877 1210.46 87.7092 1243.23 81.5335 1275.87C78.2132 1293.45 75.4242 1311.15 72.4027 1328.78C48.6129 1328.78 24.823 1328.78 1.0332 1328.78C1.0332 1307.76 1.0332 1286.73 1.0332 1265.71C3.87204 1264.25 7.22553 1263.36 9.46672 1261.25C37.3073 1235.27 45.525 1202.16 36.9753 1166.82C30.0359 1138.15 17.1532 1110.9 6.66108 1083.11C5.69819 1080.56 2.94236 1078.68 1.01659 1076.51C1.0332 1024.51 1.0332 972.515 1.0332 920.503Z" stroke="white" stroke-width="2" stroke-miterlimit="10"/>
<path d="M1.03327 341.279C14.5302 350.277 28.6414 358.495 41.3913 368.456C58.0924 381.504 74.0795 395.466 84.389 414.774C95.0305 434.712 93.636 454.7 85.3187 474.522C71.2407 508.074 56.5152 541.343 42.0388 574.728C34.9168 591.164 28.658 608.064 20.2909 623.835C15.7255 632.418 7.57423 639.109 1.03327 646.646C1.03327 599.066 1.03327 551.486 1.03327 503.907C2.5772 502.462 4.70219 501.284 5.59866 499.507C13.7168 483.421 18.1659 466.338 15.4433 448.358C13.8662 437.949 10.8115 427.441 1.03327 420.916C1.03327 394.387 1.03327 367.842 1.03327 341.279Z" stroke="white" stroke-width="2" stroke-miterlimit="10"/>
<path d="M414.342 1328.8C413.794 1314.22 412.35 1299.61 412.865 1285.07C414.01 1252.88 428.835 1228.81 458.303 1214.81C478.49 1205.22 503.176 1214.15 513.801 1233.77C526.02 1256.35 529.373 1281.27 533.789 1305.94C535.151 1313.52 536.064 1321.18 537.176 1328.8C496.22 1328.8 455.281 1328.8 414.342 1328.8Z" stroke="white" stroke-width="2" stroke-miterlimit="10"/>
<path d="M1.03327 1076.52C2.95904 1078.71 5.71487 1080.59 6.67775 1083.13C17.1699 1110.92 30.0526 1138.15 36.9919 1166.83C45.5417 1202.18 37.324 1235.28 9.48339 1261.26C7.2422 1263.36 3.88872 1264.27 1.04987 1265.73C1.03327 1202.66 1.03327 1139.59 1.03327 1076.52Z" stroke="white" stroke-width="2" stroke-miterlimit="10"/>
<path d="M1.03327 420.949C10.8115 427.474 13.8662 437.983 15.4433 448.392C18.1493 466.354 13.7002 483.437 5.59866 499.541C4.70218 501.317 2.5938 502.496 1.03327 503.94C1.03327 476.265 1.03327 448.607 1.03327 420.949Z" stroke="white" stroke-width="2" stroke-miterlimit="10"/>
<path d="M910.774 150.446C909.313 187.135 897.062 220.587 879.215 252.246C860.655 285.15 832.963 309.554 804.293 333.244C780.486 352.917 756.564 372.639 734.583 394.271C714.795 413.761 698.11 436.372 679.085 456.692C657.071 480.2 628.384 493.481 598.253 472.049C587.229 464.196 579.128 453.488 573.932 441.07C552.765 390.403 558.625 335.004 600.012 294.015C611.168 282.975 621.727 271.221 631.721 259.119C649.966 237.022 655.278 211.672 649.285 183.665C644.604 161.801 639.258 139.987 636.386 117.857C631.854 82.9114 641.283 51.8335 668.759 28.3757C681.94 17.12 698.724 15.3602 715.21 18.3485C753.21 25.2547 789.551 37.8219 824.331 54.4068C842.476 63.0561 860.422 72.6683 876.891 84.1067C899.402 99.795 912.617 121.543 910.774 150.446ZM721.784 135.604C724.042 145.217 726.084 154.895 728.607 164.424C733.621 183.35 739.414 202.076 743.88 221.135C746.752 233.436 747.217 246.286 749.89 258.654C752.546 270.972 763.121 277.148 774.991 273.379C809.24 262.506 833.163 227.261 832.2 190.439C831.071 147.192 794.996 113.973 757.527 106.137C737.273 101.887 723.079 114.521 721.784 135.604Z" stroke="white" stroke-width="2" stroke-miterlimit="10"/>
<path d="M125.56 1049.33C124.515 1024 129.993 1000.54 137.879 977.811C152.538 935.527 167.496 893.31 183.981 851.723C192.481 830.291 205.612 810.535 231.743 808.51C245.821 807.414 260.231 810.402 274.459 811.714C307.379 814.735 340.267 819.965 373.204 820.28C399.998 820.529 426.876 814.984 453.687 811.913C473.925 809.589 494.079 805.87 514.532 809.888C547.469 816.362 569.283 841.58 573.849 875.828C578.265 908.998 570.395 939.628 556.633 968.929C547.253 988.884 535.765 1007.86 524.708 1026.98C503.093 1064.37 472.065 1092.54 436.638 1116.55C403.186 1139.21 371.046 1163.88 344.434 1194.34C325.608 1215.88 310.019 1240.21 292.654 1263.04C286.03 1271.76 279.306 1280.7 271.155 1287.88C252.661 1304.16 230.664 1291.53 220.189 1279.11C202.525 1258.18 194.871 1232.18 183.798 1207.84C173.057 1184.22 161.071 1161.16 149.765 1137.78C136.119 1109.53 123.684 1080.91 125.56 1049.33ZM350.676 865.768C329.741 865.768 308.707 864.805 287.806 866C258.339 867.694 233.32 880.128 214.345 902.889C191.385 930.414 175.498 961.973 165.42 996.255C155.393 1030.3 154.264 1064.22 170.334 1097.18C181.142 1119.35 196.615 1137.88 214.444 1154.72C240.293 1179.1 269.262 1186.14 302.233 1169.11C348.102 1145.42 386.551 1111.68 424.984 1078.07C453.687 1052.97 476.481 1022.7 496.569 990.411C511.079 967.103 524.791 943.396 526.053 914.925C526.784 898.406 522.318 883.747 508.987 872.99C491.555 858.928 470.737 858.214 449.869 859.327C416.832 861.103 383.845 863.577 350.676 865.768Z" stroke="white" stroke-width="2" stroke-miterlimit="10"/>
<path d="M303.777 203.67C289.483 202.657 278.31 196.233 271.122 183.997C263.933 171.779 266.307 159.643 273.247 147.956C280.668 135.438 292.388 127.486 303.976 119.601C330.887 101.289 357.964 83.2102 385.273 65.4965C391.897 61.1968 399.401 57.9263 406.938 55.4859C420.999 50.9205 431.475 60.9975 428.868 75.8558C426.345 90.2326 419.074 102.202 409.528 112.777C399.002 124.448 387.846 135.538 377.138 147.043C366.995 157.917 357.565 169.521 346.924 179.864C334.821 191.568 322.038 202.774 303.777 203.67Z" stroke="white" stroke-width="2" stroke-miterlimit="10"/>
<path d="M350.676 865.768C383.829 863.593 416.832 861.103 449.853 859.36C470.721 858.248 491.555 858.961 508.97 873.023C522.301 883.78 526.784 898.44 526.036 914.958C524.758 943.429 511.062 967.12 496.552 990.445C476.465 1022.73 453.671 1053 424.967 1078.1C386.535 1111.72 348.102 1145.45 302.216 1169.14C269.229 1186.18 240.26 1179.14 214.428 1154.75C196.598 1137.92 181.125 1119.39 170.318 1097.21C154.248 1064.25 155.393 1030.34 165.404 996.288C175.498 962.006 191.368 930.447 214.328 902.922C233.304 880.178 258.322 867.727 287.79 866.034C308.707 864.789 329.741 865.768 350.676 865.768ZM278.211 1121.33C278.41 1122.08 278.626 1122.82 278.825 1123.59C290.944 1120.28 303.478 1118.04 315.082 1113.44C341.063 1103.17 361.666 1085.12 380.326 1064.82C402.406 1040.8 418.609 1013.6 424.618 980.965C429.117 956.528 420.02 939.511 396.678 930.431C366.331 918.61 335.22 911.239 302.249 913.763C282.726 915.257 264.647 920.602 249.092 932.489C219.425 955.15 202.425 985.149 196.166 1022.17C187.002 1076.39 235.03 1124.04 278.211 1121.33Z" stroke="white" stroke-width="2" stroke-miterlimit="10"/>
<path d="M278.21 1121.33C235.03 1124.04 187.002 1076.39 196.166 1022.15C202.425 985.132 219.408 955.133 249.092 932.472C264.647 920.602 282.726 915.257 302.249 913.746C335.236 911.206 366.331 918.594 396.678 930.414C420.02 939.512 429.117 956.511 424.618 980.949C418.609 1013.57 402.406 1040.76 380.326 1064.8C361.666 1085.11 341.047 1103.15 315.082 1113.43C303.478 1118.03 290.944 1120.27 278.825 1123.57C278.626 1122.84 278.41 1122.08 278.21 1121.33ZM287.474 1059.92C307.977 1059.89 325.807 1045.35 332.912 1022.85C336.797 1010.57 331.783 995.89 321.192 988.453C298.78 972.731 266.689 981.928 255.749 1007.23C243.945 1034.5 259.268 1059.95 287.474 1059.92Z" stroke="white" stroke-width="2" stroke-miterlimit="10"/>
<path d="M287.474 1059.92C259.268 1059.95 243.945 1034.5 255.765 1007.23C266.722 981.928 298.796 972.731 321.208 988.452C331.8 995.89 336.797 1010.57 332.929 1022.85C325.807 1045.35 307.977 1059.89 287.474 1059.92Z" stroke="white" stroke-width="2" stroke-miterlimit="10"/>
</g>
</svg>
