<svg width="88" height="88" viewBox="0 0 88 88" fill="none" xmlns="http://www.w3.org/2000/svg">
<path d="M56.8334 7.33331H9.16669V55H56.8334V7.33331Z" fill="#B5C5C3"/>
<path d="M44.0182 73.205C28.6182 62.8467 19.1766 45.3567 19.1766 26.6567C19.1766 26.5467 19.1766 26.4367 19.1766 26.3267C27.8666 25.9233 36.3366 23.705 44.0182 19.855V13.64C35.7132 18.3517 26.2166 20.8817 16.5182 20.9H13.9332L13.7682 23.485C13.7132 24.53 13.6766 25.5933 13.6766 26.675C13.6766 48.4183 25.2999 68.695 44.0182 79.7317V73.205Z" fill="#33404F"/>
<path d="M77.9349 23.485L77.7699 20.9H75.1849C65.4682 20.8817 55.9899 18.3517 47.6849 13.64V19.855C55.3666 23.705 63.8366 25.9417 72.5266 26.3267C72.5266 26.4367 72.5266 26.5467 72.5266 26.6567C72.5266 45.3567 63.0849 62.8467 47.6849 73.205V79.7133C66.4032 68.6767 78.0266 48.4 78.0266 26.6567C78.0266 25.575 77.9899 24.53 77.9349 23.485Z" fill="#33404F"/>
<path d="M44.935 34.4484L45.8517 33.9167L46.7683 34.4484C53.1117 38.1334 60.39 40.1317 67.8333 40.2967C68.4383 37.3267 68.7683 34.2467 68.7683 31.0934C68.7683 30.2867 68.75 29.5167 68.695 28.7467C60.3717 28.7284 52.58 26.51 45.8517 22.605C39.1233 26.51 31.3317 28.71 23.0083 28.7467C22.9533 29.5167 22.935 30.305 22.935 31.0934C22.935 34.2467 23.2467 37.3267 23.87 40.2967C31.3133 40.1317 38.5733 38.1334 44.935 34.4484Z" fill="#33404F"/>
<path d="M45.8517 38.1333C39.435 41.6716 32.1934 43.6516 24.7684 43.945C28.105 55.3666 35.75 64.955 45.8517 70.8033C55.9534 64.9733 63.5984 55.385 66.935 43.945C59.51 43.6516 52.2684 41.6716 45.8517 38.1333Z" fill="#33404F"/>
</svg>
